<svg width="60" height="60" viewBox="0 0 60 60" fill="none" xmlns="http://www.w3.org/2000/svg">
<path fill-rule="evenodd" clip-rule="evenodd" d="M40 40H20V34.997C20.0606 34.999 20.1215 35 20.1826 35H41.9382C44.3673 35 46.4704 33.3723 46.9974 31.0847L49.8766 18.5847C49.9586 18.2285 50 17.8648 50 17.5C50 14.7386 47.6797 12.5 44.8174 12.5H20.1826C20.1215 12.5 20.0606 12.501 20 12.503V7.5C20 6.11929 18.8807 5 17.5 5H12.5C11.1193 5 10 6.11929 10 7.5C10 8.88071 11.1193 10 12.5 10H15V42.5C15 43.8807 16.1193 45 17.5 45H40C41.3807 45 42.5 43.8807 42.5 42.5C42.5 41.1193 41.3807 40 40 40ZM22.5 51.25C22.5 53.3211 20.8211 55 18.75 55C16.6789 55 15 53.3211 15 51.25C15 49.1789 16.6789 47.5 18.75 47.5C20.8211 47.5 22.5 49.1789 22.5 51.25ZM41.25 55C43.3211 55 45 53.3211 45 51.25C45 49.1789 43.3211 47.5 41.25 47.5C39.1789 47.5 37.5 49.1789 37.5 51.25C37.5 53.3211 39.1789 55 41.25 55ZM20 30V17.5H45L42.0781 30H20Z" fill="black"/>
</svg>
