<svg width="60" height="60" viewBox="0 0 60 60" fill="none" xmlns="http://www.w3.org/2000/svg">
<path fill-rule="evenodd" clip-rule="evenodd" d="M27.5 25C27.5 29.1421 24.1421 32.5 20 32.5C15.8579 32.5 12.5 29.1421 12.5 25C12.5 20.8579 15.8579 17.5 20 17.5C24.1421 17.5 27.5 20.8579 27.5 25ZM47.5 25C47.5 29.1421 44.1421 32.5 40 32.5C35.8579 32.5 32.5 29.1421 32.5 25C32.5 20.8579 35.8579 17.5 40 17.5C44.1421 17.5 47.5 20.8579 47.5 25ZM20 37.5C14.0265 37.5 8.66472 40.1188 5 44.2709V47.5H35V44.2709C31.3353 40.1188 25.9735 37.5 20 37.5ZM40 42.3799V47.5H55V44.2709C51.3353 40.1188 45.9735 37.5 40 37.5C38.4964 37.5 37.0315 37.6659 35.6228 37.9805C36.7415 38.8771 37.7878 39.8736 38.7487 40.9622L40 42.3799Z" fill="black"/>
</svg>
